<?xml version="1.0" encoding="UTF-8" standalone="no"?>
<svg
   xmlns:dc="http://purl.org/dc/elements/1.1/"
   xmlns:cc="http://creativecommons.org/ns#"
   xmlns:rdf="http://www.w3.org/1999/02/22-rdf-syntax-ns#"
   xmlns:svg="http://www.w3.org/2000/svg"
   xmlns="http://www.w3.org/2000/svg"
   xmlns:sodipodi="http://sodipodi.sourceforge.net/DTD/sodipodi-0.dtd"
   xmlns:inkscape="http://www.inkscape.org/namespaces/inkscape"
   id="svg3576"
   version="1.1"
   xml:space="preserve"
   width="428.93326"
   height="268.20248"
   viewBox="0 0 428.93326 268.20248"
   inkscape:version="0.91 r13725"
   sodipodi:docname="logo.svg"><sodipodi:namedview
     pagecolor="#ffffff"
     bordercolor="#666666"
     borderopacity="1"
     objecttolerance="10"
     gridtolerance="10"
     guidetolerance="10"
     inkscape:pageopacity="0"
     inkscape:pageshadow="2"
     inkscape:window-width="1440"
     inkscape:window-height="811"
     id="namedview52"
     showgrid="false"
     fit-margin-top="0"
     fit-margin-left="0"
     fit-margin-right="0"
     fit-margin-bottom="0"
     inkscape:zoom="1.668772"
     inkscape:cx="181.17477"
     inkscape:cy="145.3439"
     inkscape:window-x="0"
     inkscape:window-y="0"
     inkscape:window-maximized="1"
     inkscape:current-layer="svg3576" /><metadata
     id="metadata3582"><rdf:RDF><cc:Work
         rdf:about=""><dc:format>image/svg+xml</dc:format><dc:type
           rdf:resource="http://purl.org/dc/dcmitype/StillImage" /><dc:title></dc:title></cc:Work></rdf:RDF></metadata><defs
     id="defs3580" /><path
     style="fill:none;fill-rule:evenodd;stroke:#e0e0e0;stroke-width:6.5999999;stroke-linecap:butt;stroke-linejoin:miter;stroke-miterlimit:4;stroke-dasharray:6.5999999,6.5999999;stroke-dashoffset:7.91999989;stroke-opacity:1"
     d="M 53.903461,143.05612 111.66401,88.86357"
     id="path4179"
     inkscape:connector-curvature="0" /><path
     style="fill:none;fill-rule:evenodd;stroke:#e0e0e0;stroke-width:6.5999999;stroke-linecap:butt;stroke-linejoin:miter;stroke-miterlimit:4;stroke-dasharray:6.5999999,6.5999999;stroke-dashoffset:0.65999999;stroke-opacity:1"
     d="M 153.99318,224.1909 183.55704,88.712633"
     id="path4181"
     inkscape:connector-curvature="0" /><path
     style="fill:none;fill-rule:evenodd;stroke:#e0e0e0;stroke-width:6.5999999;stroke-linecap:butt;stroke-linejoin:miter;stroke-miterlimit:4;stroke-dasharray:6.5999999,6.5999999;stroke-dashoffset:7.91999989;stroke-opacity:1"
     d="M 265.67184,175.69891 239.06719,88.736531"
     id="path4183"
     inkscape:connector-curvature="0" /><path
     style="fill:none;fill-rule:evenodd;stroke:#e0e0e0;stroke-width:6.5999999;stroke-linecap:butt;stroke-linejoin:miter;stroke-miterlimit:4;stroke-dasharray:6.5999999,6.5999999;stroke-dashoffset:11.21999984;stroke-opacity:1"
     d="M 376.5309,168.73845 313.37422,88.841986"
     id="path4185"
     inkscape:connector-curvature="0" /><g
     transform="matrix(1.25,0,0,-1.25,585.38888,507.12744)"
     id="g3586" /><path
     id="path3624"
     style="fill:#c2d6eb;fill-opacity:1;fill-rule:evenodd;stroke:#e0e0e0;stroke-width:7;stroke-miterlimit:4;stroke-dasharray:none;stroke-opacity:1"
     d="m 3.5,154.95786 c 0,-30.22087 24.498747,-54.71962 54.719627,-54.71962 30.22087,0 54.719593,24.49875 54.719593,54.71962 0,30.22088 -24.498723,54.71975 -54.719593,54.71975 C 27.998747,209.67761 3.5,185.17874 3.5,154.95786 Z"
     inkscape:connector-curvature="0" /><g
     transform="matrix(1.25,0,0,-1.25,28.245528,113.913)"
     id="g3630"><g
       transform="matrix(1,0,0,-1,2.25,-48)"
       style="font-variant:normal;font-weight:bold;font-size:48px;font-family:Calibri;-inkscape-font-specification:Calibri-Bold;writing-mode:lr-tb;fill:#2a60a6;fill-opacity:1;fill-rule:nonzero;stroke:none"
       id="text3632"><path
         d="m 35.226562,-1.5703125 q -0.140625,0.5625 -0.398437,0.9140625 -0.234375,0.328125 -0.726563,0.515625 Q 33.609375,0 32.835937,0 32.0625,0.140625 30.867187,0.140625 29.53125,0.140625 28.710937,0 27.914062,0 27.445312,-0.140625 26.976562,-0.328125 26.765625,-0.65625 26.554687,-1.0078125 26.4375,-1.5703125 l -4.851563,-19.2187495 -0.04687,0 -4.59375,19.2187495 q -0.117187,0.5390625 -0.328125,0.890625 -0.210937,0.328125 -0.679687,0.515625 Q 15.492193,0 14.695318,0 13.92188,0.140625 12.632818,0.140625 11.273443,0.140625 10.45313,0 9.65625,0 9.1875,-0.140625 8.71875,-0.328125 8.5078125,-0.65625 8.296875,-1.0078125 8.15625,-1.5703125 L 1.265625,-28.03125 Q 1.0546875,-28.875 1.03125,-29.34375 1.007813,-29.835937 1.2890625,-30.09375 1.59375,-30.351562 2.25,-30.398437 q 0.6796875,-0.07031 1.875,-0.07031 1.1015625,0 1.734375,0.04687 0.65625,0.02344 0.984375,0.164063 0.328125,0.117187 0.4453125,0.375 0.1171875,0.234375 0.1875,0.679687 l 5.3203125,23.2265625 0.02344,0 5.531249,-23.0624995 q 0.09375,-0.445313 0.234375,-0.726563 0.164063,-0.28125 0.515625,-0.421875 0.375,-0.164062 1.007813,-0.210937 0.632812,-0.07031 1.6875,-0.07031 1.125,0 1.78125,0.04687 0.679687,0.04687 1.03125,0.210938 0.375,0.140625 0.539062,0.421875 0.164063,0.28125 0.257813,0.75 l 5.71875,23.0624995 0.04687,0 5.320312,-23.1562495 q 0.07031,-0.375 0.1875,-0.632813 0.117188,-0.28125 0.445313,-0.421875 0.328125,-0.164062 0.9375,-0.210937 0.609375,-0.07031 1.710937,-0.07031 1.03125,0 1.59375,0.07031 0.585938,0.04687 0.84375,0.304687 0.257813,0.257813 0.210938,0.773438 -0.02344,0.492187 -0.234375,1.359375 l -6.960938,26.3906245 z"
         id="path3382"
         inkscape:connector-curvature="0" /></g></g><g
     transform="matrix(1.25,0,0,-1.25,563.4637,137.37496)"
     id="g3636"><text
       id="text3638"
       style="font-variant:normal;font-weight:bold;font-size:32px;font-family:Calibri;-inkscape-font-specification:Calibri-Bold;writing-mode:lr-tb;fill:#174095;fill-opacity:1;fill-rule:nonzero;stroke:none"
       transform="matrix(1,0,0,-1,45.75,-48)"><tspan
         id="tspan3640"
         y="0"
         x="0" /></text>
</g><path
     id="path3642"
     style="fill:#c2d6eb;fill-opacity:1;fill-rule:evenodd;stroke:#e0e0e0;stroke-width:7;stroke-miterlimit:4;stroke-dasharray:none;stroke-opacity:1"
     d="m 108.93662,218.19062 c 0,-25.68775 20.824,-46.51175 46.5117,-46.51175 25.6878,0 46.51176,20.824 46.51176,46.51175 0,25.68775 -20.82396,46.51188 -46.51176,46.51188 -25.6877,0 -46.5117,-20.82413 -46.5117,-46.51188 z"
     inkscape:connector-curvature="0" /><g
     transform="matrix(1.25,0,0,-1.25,148.06554,177.99537)"
     id="g3648"><g
       transform="matrix(1,0,0,-1,0,-48)"
       style="font-variant:normal;font-weight:bold;font-size:48px;font-family:Calibri;-inkscape-font-specification:Calibri-Bold;writing-mode:lr-tb;fill:#2a60a6;fill-opacity:1;fill-rule:nonzero;stroke:none"
       id="text3650"><path
         d="M 8.859375,-0.796875 Q 8.859375,-0.5625 8.71875,-0.375 8.578125,-0.2109375 8.2265625,0 7.8984375,0 7.3359375,0 6.7734375,0.140625 5.90625,0.140625 5.0390625,0.140625 4.4765625,0 3.9140625,0 3.5625,0 3.234375,-0.2109375 3.09375,-0.375 2.953125,-0.5625 2.953125,-0.796875 l 0,-20.859375 q 0,-0.234375 0.140625,-0.398437 0.140625,-0.1875 0.46875,-0.304688 0.3515625,-0.140625 0.9140625,-0.210937 0.5625,-0.07031 1.4296875,-0.07031 0.8671875,0 1.4296875,0.07031 0.5625,0.07031 0.890625,0.210937 0.3515625,0.117188 0.4921875,0.304688 0.140625,0.164062 0.140625,0.398437 l 0,20.859375 z M 9.3046875,-28.78125 q 0,1.78125 -0.7265625,2.460938 -0.7265625,0.679687 -2.6953125,0.679687 -1.9921875,0 -2.6953125,-0.65625 -0.6796875,-0.65625 -0.6796875,-2.367187 0,-1.78125 0.703125,-2.460938 0.7265625,-0.703125 2.71875,-0.703125 1.96875,0 2.671875,0.679688 0.703125,0.65625 0.703125,2.367187 z"
         id="path3385"
         inkscape:connector-curvature="0" /></g></g><g
     transform="matrix(1.25,0,0,-1.25,682.74623,197.80871)"
     id="g3654"><text
       id="text3656"
       style="font-variant:normal;font-weight:bold;font-size:32px;font-family:Calibri;-inkscape-font-specification:Calibri-Bold;writing-mode:lr-tb;fill:#174095;fill-opacity:1;fill-rule:nonzero;stroke:none"
       transform="matrix(1,0,0,-1,11.78906,-48)"><tspan
         id="tspan3658"
         y="0"
         x="0" /></text>
</g><path
     id="path3660"
     style="fill:#c2d6eb;fill-opacity:1;fill-rule:evenodd;stroke:#e0e0e0;stroke-width:7;stroke-miterlimit:4;stroke-dasharray:none;stroke-opacity:1"
     d="m 204.89846,171.679 c 0,-28.70987 23.274,-51.98375 51.9839,-51.98375 28.7097,0 51.9837,23.27388 51.9837,51.98375 0,28.70976 -23.274,51.98375 -51.9837,51.98375 -28.7099,0 -51.9839,-23.274 -51.9839,-51.98375 z"
     inkscape:connector-curvature="0" /><g
     transform="matrix(1.25,0,0,-1.25,228.79146,130.63408)"
     id="g3666"><g
       transform="matrix(1,0,0,-1,11.09373,-48)"
       style="font-variant:normal;font-weight:bold;font-size:48px;font-family:Calibri;-inkscape-font-specification:Calibri-Bold;writing-mode:lr-tb;fill:#2a60a6;fill-opacity:1;fill-rule:nonzero;stroke:none"
       id="text3668"><path
         d="m 21.28125,-9.09375 q 0,2.390625 -0.890625,4.1953125 Q 19.5,-3.09375 17.976562,-1.875 16.453125,-0.6796875 14.414063,0 12.375,0.5390625 10.054688,0.5390625 8.484375,0.5390625 7.125,0.28125 5.7890625,0 4.7578125,-0.328125 3.7265625,-0.703125 3.0234375,-1.1015625 2.34375,-1.5 2.0390625,-1.8046875 1.734375,-2.109375 1.59375,-2.671875 1.4765625,-3.2578125 1.4765625,-4.3359375 q 0,-0.7265625 0.046875,-1.21875 0.046875,-0.4921875 0.140625,-0.796875 0.1171875,-0.3046875 0.28125,-0.421875 0.1875,-0.140625 0.421875,-0.140625 0.328125,0 0.9140625,0.3984375 0.609375,0.375 1.546875,0.84375 0.9375,0.46875 2.2265625,0.8671875 1.3125,0.375 3.0234375,0.375 1.125,0 2.015625,-0.2578125 0.890625,-0.28125 1.5,-0.7734375 0.632813,-0.4921875 0.960938,-1.21875 0.328125,-0.7265625 0.328125,-1.6171875 0,-1.03125 -0.5625,-1.757813 -0.5625,-0.75 -1.476563,-1.3125 -0.890625,-0.585937 -2.039062,-1.078125 -1.148438,-0.515625 -2.367188,-1.078125 -1.21875,-0.5625 -2.3671875,-1.265625 -1.1484375,-0.726562 -2.0625,-1.710937 -0.890625,-1.007812 -1.453125,-2.367187 -0.5625,-1.359375 -0.5625,-3.257813 0,-2.179687 0.796875,-3.820312 0.8203125,-1.664063 2.1796875,-2.742188 1.3828125,-1.101562 3.234375,-1.640625 1.875,-0.539062 3.960938,-0.539062 1.078125,0 2.15625,0.164062 1.078125,0.164063 2.015624,0.445313 0.9375,0.28125 1.664063,0.632812 0.726562,0.351563 0.960937,0.585938 0.234375,0.234375 0.304688,0.398437 0.09375,0.164063 0.140625,0.445313 0.07031,0.257812 0.09375,0.679687 0.02344,0.398438 0.02344,1.007813 0,0.679687 -0.04687,1.148437 -0.02344,0.46875 -0.117187,0.773438 -0.07031,0.304687 -0.234375,0.445312 Q 18.984375,-24 18.726562,-24 18.46875,-24 17.90625,-24.328125 17.34375,-24.65625 16.523437,-25.03125 15.703125,-25.429687 14.625,-25.734375 13.546875,-26.0625 12.257813,-26.0625 11.25,-26.0625 10.5,-25.804687 9.75,-25.570312 9.234375,-25.125 q -0.4921875,0.421875 -0.75,1.03125 Q 8.25,-23.484375 8.25,-22.804687 q 0,1.007812 0.5390625,1.757812 0.5625,0.726563 1.4765625,1.3125 0.9375,0.5625 2.109375,1.078125 1.171875,0.492188 2.390625,1.054688 1.21875,0.5625 2.390625,1.289062 1.171875,0.703125 2.085937,1.710937 0.914063,0.984375 1.476563,2.34375 0.5625,1.335938 0.5625,3.164063 z"
         id="path3388"
         inkscape:connector-curvature="0" /></g></g><g
     transform="matrix(1.25,0,0,-1.25,764.06099,152.16133)"
     id="g3672"><text
       id="text3674"
       style="font-variant:normal;font-weight:bold;font-size:32px;font-family:Calibri;-inkscape-font-specification:Calibri-Bold;writing-mode:lr-tb;fill:#174095;fill-opacity:1;fill-rule:nonzero;stroke:none"
       transform="matrix(1,0,0,-1,33.78123,-48)"><tspan
         id="tspan3676"
         y="0"
         x="0" /></text>
</g><path
     id="path3678"
     style="fill:#c2d6eb;fill-opacity:1;fill-rule:evenodd;stroke:#e0e0e0;stroke-width:7;stroke-miterlimit:4;stroke-dasharray:none;stroke-opacity:1"
     d="m 332.40958,176.04926 c 0,-25.68775 20.8241,-46.51188 46.51187,-46.51188 25.6878,0 46.5118,20.82412 46.5118,46.51187 0,25.68775 -20.824,46.51175 -46.5118,46.51175 -25.68777,0 -46.51187,-20.82399 -46.51187,-46.51175 z"
     inkscape:connector-curvature="0" /><g
     transform="matrix(1.25,0,0,-1.25,354.88335,130.11169)"
     id="g3684"><g
       transform="matrix(1,0,0,-1,7.230453,-48)"
       style="font-variant:normal;font-weight:bold;font-size:48px;font-family:Calibri;-inkscape-font-specification:Calibri-Bold;writing-mode:lr-tb;fill:#2a60a6;fill-opacity:1;fill-rule:nonzero;stroke:none"
       id="text3686"><path
         d="m 22.265625,-11.859375 q 0,1.078125 -0.492188,1.59375 Q 21.304687,-9.75 20.460937,-9.75 l -12.726562,0 q 0,1.3359375 0.3046875,2.4375 0.328125,1.078125 1.0078125,1.8515625 0.703125,0.75 1.78125,1.1484375 1.101563,0.3984375 2.625,0.3984375 1.546875,0 2.71875,-0.2109375 1.171875,-0.234375 2.015625,-0.4921875 0.867187,-0.28125 1.429687,-0.4921875 0.5625,-0.234375 0.914063,-0.234375 0.210937,0 0.351562,0.09375 0.140625,0.070312 0.234375,0.28125 0.09375,0.2109375 0.117188,0.609375 0.04687,0.375 0.04687,0.9609375 0,0.515625 -0.02344,0.890625 -0.02344,0.3515625 -0.07031,0.609375 -0.04687,0.2578125 -0.140625,0.4453125 -0.09375,0.1640625 -0.257813,0.328125 -0.140625,0.1640625 -0.820312,0.4453125 -0.679688,0.28125 -1.734375,0.5625 -1.054688,0.2578125 -2.414062,0.4453125 -1.359375,0.2109375 -2.90625,0.2109375 -2.789063,0 -4.898438,-0.703125 Q 5.9296875,-0.8671875 4.5234375,-2.296875 3.1171875,-3.7265625 2.4140625,-5.90625 1.734375,-8.0859375 1.734375,-11.015625 q 0,-2.789063 0.7265625,-5.015625 0.7265625,-2.25 2.109375,-3.796875 1.3828125,-1.570312 3.3515625,-2.390625 1.9921875,-0.820312 4.476563,-0.820312 2.625,0 4.476562,0.773437 1.875,0.773438 3.070312,2.15625 1.195313,1.359375 1.757813,3.234375 0.5625,1.875 0.5625,4.078125 l 0,0.9375 z m -5.71875,-1.6875 q 0.07031,-2.484375 -1.007812,-3.890625 -1.054688,-1.429687 -3.28125,-1.429687 -1.125,0 -1.96875,0.421875 -0.820313,0.421875 -1.382813,1.148437 -0.5390625,0.703125 -0.84375,1.6875 -0.28125,0.960937 -0.328125,2.0625 l 8.8125,0 z"
         id="path3392"
         inkscape:connector-curvature="0" /></g></g><g
     transform="matrix(1.25,0,0,-1.25,889.96939,152.66246)"
     id="g3690"><text
       id="text3692"
       style="font-variant:normal;font-weight:bold;font-size:32px;font-family:Calibri;-inkscape-font-specification:Calibri-Bold;writing-mode:lr-tb;fill:#174095;fill-opacity:1;fill-rule:nonzero;stroke:none"
       transform="matrix(1,0,0,-1,31.39452,-48)"><tspan
         id="tspan3694"
         y="0"
         x="0" /></text>
</g><g
     style="font-variant:normal;font-weight:normal;font-size:90px;font-family:Pirulen;-inkscape-font-specification:Pirulen;writing-mode:lr-tb;fill:#2a60a6;fill-opacity:1;fill-rule:nonzero;stroke:none;stroke-width:2.16000009;stroke-linecap:butt;stroke-linejoin:miter;stroke-miterlimit:10;stroke-dasharray:none;stroke-opacity:1"
     id="text3698"
     transform="translate(0.6874401,0)"><path
       d="m 136.39975,26.010002 q 22.59,0 22.59,13.68 l 0,11.25 q 0,13.5 -22.59,13.5 l -54.090005,0 0,-9.36 54.090005,0 q 10.62,0 10.62,-4.14 l 0,-11.25 q 0,-4.32 -10.62,-4.32 l -33.66,0 q -22.590005,0 -22.590005,-13.68 l 0,-6.93 q 0,-13.6799996 22.590005,-13.6799996 l 52.29,0 0,9.3599996 -52.29,0 q -10.620005,0 -10.620005,4.32 l 0,6.93 q 0,4.32 10.620005,4.32 l 33.66,0 z"
       style="stroke-width:2.16000009;stroke:none;stroke-opacity:1;fill:#2a60a6;fill-opacity:1"
       id="path3387"
       inkscape:connector-curvature="0" /><path
       d="m 169.78974,1.0800024 55.35,0 q 26.19,0 26.19,17.2799996 l 0,28.98 q 0,17.1 -26.19,17.1 l -55.35,0 0,-63.3599996 z m 55.35,53.9999996 q 14.22,0 14.22,-7.74 l 0,-28.98 q 0,-7.92 -14.22,-7.92 l -43.38,0 0,44.64 43.38,0 z"
       style="stroke-width:2.16000009;stroke:none;stroke-opacity:1;fill:#2a60a6;fill-opacity:1"
       id="path3389"
       inkscape:connector-curvature="0" /><path
       d="m 274.00973,16.200002 0,48.24 -11.34,0 0,-63.3599996 9.45,0 63.09,48.5999996 0,-48.5999996 11.34,0 0,63.3599996 -9.45,0 -63.09,-48.24 z"
       style="stroke-width:2.16000009;stroke:none;stroke-opacity:1;fill:#2a60a6;fill-opacity:1"
       id="path3391"
       inkscape:connector-curvature="0" /></g></svg>